{
  "asset": {
    "generator": "Khronos glTF Blender I/O v1.7.33",
    "version": "2.0"
  },
  "scene": 0,
  "scenes": [
    {
      "name": "Scene",
      "nodes": [0, 1, 2]
    }
  ],
  "nodes": [
    {
      "mesh": 0,
      "name": "Sillas_Channel"
    },
    {
      "mesh": 1,
      "name": "Sillas_Miura"
    },
    {
      "mesh": 2,
      "name": "Sillas_Kansas"
    }
  ],
  "materials": [
    {
      "doubleSided": true,
      "name": "Sillas",
      "pbrMetallicRoughness": {
        "baseColorTexture": {
          "index": 0
        },
        "metallicFactor": 0,
        "roughnessFactor": 0.5
      }
    }
  ],
  "meshes": [
    {
      "name": "Silla",
      "primitives": [
        {
          "attributes": {
            "POSITION": 0,
            "NORMAL": 1,
            "TEXCOORD_0": 2
          },
          "indices": 3,
          "material": 0
        }
      ]
    },
    {
      "name": "Silla.002",
      "primitives": [
        {
          "attributes": {
            "POSITION": 4,
            "NORMAL": 5,
            "TEXCOORD_0": 6
          },
          "indices": 7,
          "material": 0
        }
      ]
    },
    {
      "name": "Silla.001",
      "primitives": [
        {
          "attributes": {
            "POSITION": 8,
            "NORMAL": 9,
            "TEXCOORD_0": 10
          },
          "indices": 11,
          "material": 0
        }
      ]
    }
  ],
  "textures": [
    {
      "sampler": 0,
      "source": 0
    }
  ],
  "images": [
    {
      "mimeType": "image/png",
      "name": "Sillas_Base_color",
      "uri": "Sillas_Base_color.png"
    }
  ],
  "accessors": [
    {
      "bufferView": 0,
      "componentType": 5126,
      "count": 3990,
      "max": [0.21839244663715363, 0.9046768546104431, 0.49570581316947937],
      "min": [-1.2523622512817383, 0.09415493905544281, -0.7938839197158813],
      "type": "VEC3"
    },
    {
      "bufferView": 1,
      "componentType": 5126,
      "count": 3990,
      "type": "VEC3"
    },
    {
      "bufferView": 2,
      "componentType": 5126,
      "count": 3990,
      "type": "VEC2"
    },
    {
      "bufferView": 3,
      "componentType": 5123,
      "count": 18000,
      "type": "SCALAR"
    },
    {
      "bufferView": 4,
      "componentType": 5126,
      "count": 2013,
      "max": [0.24592313170433044, 0.9871030449867249, 0.49991726875305176],
      "min": [-1.2767798900604248, 0.09646068513393402, -0.8490313291549683],
      "type": "VEC3"
    },
    {
      "bufferView": 5,
      "componentType": 5126,
      "count": 2013,
      "type": "VEC3"
    },
    {
      "bufferView": 6,
      "componentType": 5126,
      "count": 2013,
      "type": "VEC2"
    },
    {
      "bufferView": 7,
      "componentType": 5123,
      "count": 8784,
      "type": "SCALAR"
    },
    {
      "bufferView": 8,
      "componentType": 5126,
      "count": 3132,
      "max": [0.2924298644065857, 0.8859503269195557, 0.5482486486434937],
      "min": [-1.3258910179138184, 0.09415523707866669, -0.8588683605194092],
      "type": "VEC3"
    },
    {
      "bufferView": 9,
      "componentType": 5126,
      "count": 3132,
      "type": "VEC3"
    },
    {
      "bufferView": 10,
      "componentType": 5126,
      "count": 3132,
      "type": "VEC2"
    },
    {
      "bufferView": 11,
      "componentType": 5123,
      "count": 11628,
      "type": "SCALAR"
    }
  ],
  "bufferViews": [
    {
      "buffer": 0,
      "byteLength": 47880,
      "byteOffset": 0
    },
    {
      "buffer": 0,
      "byteLength": 47880,
      "byteOffset": 47880
    },
    {
      "buffer": 0,
      "byteLength": 31920,
      "byteOffset": 95760
    },
    {
      "buffer": 0,
      "byteLength": 36000,
      "byteOffset": 127680
    },
    {
      "buffer": 0,
      "byteLength": 24156,
      "byteOffset": 163680
    },
    {
      "buffer": 0,
      "byteLength": 24156,
      "byteOffset": 187836
    },
    {
      "buffer": 0,
      "byteLength": 16104,
      "byteOffset": 211992
    },
    {
      "buffer": 0,
      "byteLength": 17568,
      "byteOffset": 228096
    },
    {
      "buffer": 0,
      "byteLength": 37584,
      "byteOffset": 245664
    },
    {
      "buffer": 0,
      "byteLength": 37584,
      "byteOffset": 283248
    },
    {
      "buffer": 0,
      "byteLength": 25056,
      "byteOffset": 320832
    },
    {
      "buffer": 0,
      "byteLength": 23256,
      "byteOffset": 345888
    }
  ],
  "samplers": [
    {
      "magFilter": 9729,
      "minFilter": 9987
    }
  ],
  "buffers": [
    {
      "byteLength": 369144,
      "uri": "Sillas2.bin"
    }
  ]
}
